<svg
   xmlns="http://www.w3.org/2000/svg"
   height="274.74493"
   width="198.12302"
   version="1.1"
   viewBox="0 0 198.12301 274.74495">
  <path
     d="m 69.373017,175.8246 a 21.61,21.61 0 0 1 -0.08,30.28 21.28,21.28 0 0 1 -30.17,0 l -11.32,11.38 a 37.05,37.05 0 0 0 52.81,0 37.76,37.76 0 0 0 7.87,-41.66 z"
     fill="#00d59a" />
  <path
     d="m 182.13302,124.2546 c 0,0.42 0.08,0.91 0.08,1.32 a 17.49,17.49 0 0 1 -17.46,17.49 H 79.873017 a 58.26,58.26 0 0 1 -43,-18.23 65.07,65.07 0 0 1 -12.63,-20 66.77,66.77 0 0 1 -4.59,-24.750003 66.06,66.06 0 0 1 4.51,-24.500001 60.33,60.33 0 0 1 12.55,-20 58.42,58.42 0 0 1 43.29,-18.34 58.47,58.47 0 0 1 24.190003,5 61.35,61.35 0 0 1 19,13.45 63.52,63.52 0 0 1 12.55,20 66.06,66.06 0 0 1 4.51,24.500001 66.58,66.58 0 0 1 -4.6,24.750003 68.22,68.22 0 0 1 -4.18,8.58 h 20.91 a 84,84 0 0 0 5.09,-13.530004 77.24,77.24 0 0 0 2.62,-19.799999 81.1,81.1 0 0 0 -6.15,-31.680001 77.27,77.27 0 0 0 -42.09,-42.3999995 83.4,83.4 0 0 0 -31.850003,-6.11 80.27,80.27 0 0 0 -31.78,6.19 76.79,76.79 0 0 0 -25.22,16.9100005 A 78.4,78.4 0 0 0 6.1530167,48.514596 81.39,81.39 0 0 0 0.00301669,80.194597 81.12,81.12 0 0 0 6.1530167,111.8846 a 77.27,77.27 0 0 0 42.0700003,42.32 80.55,80.55 0 0 0 31.78,6.19 h 36.490003 v 76.23 c 0,20.71 16.41,37.87 37,38.12 a 37.620362,37.620362 0 0 0 0.33,-75.24 v 16.09 a 21.47,21.47 0 1 1 -21.38,21.41 v -76.69 h 29.76 a 35.69,35.69 0 0 0 33.87,-23.93 37.42,37.42 0 0 0 2.05,-12.21 h -16 z"
     fill="#00d59a" />
</svg>
